<svg width="25" height="26" viewBox="0 0 25 26" fill="none" xmlns="http://www.w3.org/2000/svg">
<path d="M10.4074 15.0998C10.4074 16.1952 9.62612 16.5414 8.6663 16.5414H6.14955V13.539H8.71652C9.75446 13.5447 10.4074 13.9817 10.4074 15.0998ZM9.97768 10.4288C9.97768 9.42426 9.21317 9.18589 8.36495 9.18589H6.15513V11.7285H8.53795C9.38058 11.7285 9.97768 11.3539 9.97768 10.4288ZM17.3605 11.7456C16.3393 11.7456 15.6585 12.3926 15.5915 13.4312H19.0625C18.9676 12.3812 18.4319 11.7456 17.3605 11.7456ZM25 3.01089V22.9888C25 24.4928 23.8002 25.7131 22.3214 25.7131H2.67857C1.19978 25.7131 0 24.4928 0 22.9888V3.01089C0 1.50686 1.19978 0.286621 2.67857 0.286621H22.3214C23.8002 0.286621 25 1.50686 25 3.01089ZM15.1618 8.97021H19.5033V7.89754H15.1618V8.97021ZM12.7623 15.2303C12.7623 13.8625 12.1261 12.682 10.8092 12.3018C11.769 11.8364 12.2712 11.2972 12.2712 10.2018C12.2712 8.03375 10.6808 7.50592 8.84487 7.50592H3.79464V18.403H8.98996C10.9375 18.3916 12.7623 17.4438 12.7623 15.2303ZM21.2054 14.3904C21.2054 12.0577 19.8605 10.111 17.433 10.111C15.067 10.111 13.4654 11.9158 13.4654 14.2882C13.4654 16.7457 14.9888 18.4314 17.433 18.4314C19.2857 18.4314 20.4855 17.5857 21.0658 15.7752H19.1853C18.9788 16.4506 18.1473 16.8025 17.5 16.8025C16.25 16.8025 15.5971 16.059 15.5971 14.799H21.1886C21.1942 14.6685 21.2054 14.5266 21.2054 14.3904Z" fill="#FBA7A0"/>
</svg>
