<svg width="26" height="26" viewBox="0 0 26 26" fill="none" xmlns="http://www.w3.org/2000/svg">
<path fill-rule="evenodd" clip-rule="evenodd" d="M0.382353 2.49062C0.382353 1.93147 0.604476 1.39521 0.999858 0.999832C1.39524 0.60445 1.93149 0.382327 2.49065 0.382327H23.5071C23.7842 0.381874 24.0586 0.436082 24.3148 0.541845C24.5709 0.647608 24.8036 0.80285 24.9997 0.998683C25.1957 1.19452 25.3512 1.4271 25.4573 1.6831C25.5633 1.93911 25.6178 2.21352 25.6176 2.49062V23.507C25.6179 23.7842 25.5636 24.0587 25.4577 24.3148C25.3518 24.5709 25.1965 24.8037 25.0005 24.9997C24.8046 25.1957 24.572 25.3512 24.3159 25.4572C24.0598 25.5633 23.7854 25.6178 23.5082 25.6176H2.49065C2.21369 25.6176 1.93944 25.5631 1.68357 25.457C1.42771 25.351 1.19524 25.1956 0.999452 24.9997C0.803664 24.8038 0.648392 24.5713 0.542508 24.3153C0.436624 24.0594 0.382202 23.7851 0.382353 23.5082V2.49062ZM10.3709 10.0039H13.788V11.7199C14.2813 10.7334 15.543 9.84556 17.4391 9.84556C21.0741 9.84556 21.9356 11.8105 21.9356 15.4157V22.0939H18.257V16.237C18.257 14.1837 17.7637 13.0252 16.5111 13.0252C14.7734 13.0252 14.0507 14.2744 14.0507 16.237V22.0939H10.3709V10.0039ZM4.06212 21.9367H7.74188V9.84556H4.06212V21.9356V21.9367ZM8.26838 5.90197C8.27532 6.21704 8.21926 6.53032 8.10348 6.82342C7.98771 7.11653 7.81455 7.38356 7.59418 7.60883C7.37381 7.83411 7.11065 8.0131 6.82017 8.1353C6.52968 8.25751 6.21772 8.32045 5.90257 8.32045C5.58743 8.32045 5.27546 8.25751 4.98498 8.1353C4.69449 8.0131 4.43134 7.83411 4.21097 7.60883C3.9906 7.38356 3.81744 7.11653 3.70167 6.82342C3.58589 6.53032 3.52983 6.21704 3.53676 5.90197C3.55038 5.28354 3.80562 4.69503 4.24781 4.26247C4.69 3.82991 5.28399 3.58769 5.90257 3.58769C6.52116 3.58769 7.11515 3.82991 7.55734 4.26247C7.99953 4.69503 8.25476 5.28354 8.26838 5.90197Z" fill="#FBA7A0"/>
</svg>
