<svg width="114" height="114" viewBox="0 0 114 114" fill="none" xmlns="http://www.w3.org/2000/svg">
<mask id="path-1-inside-1" fill="white">
<path fill-rule="evenodd" clip-rule="evenodd" d="M114 114L114 0C51.0395 -2.75209e-06 -1.74898e-05 51.0395 -2.02419e-05 114L114 114Z"/>
</mask>
<path d="M114 114L114 116L116 116L116 114L114 114ZM114 0L116 1.54347e-07L116 -2L114 -2L114 0ZM-2.02419e-05 114L-2.00002 114L-2.00002 116L-2.03293e-05 116L-2.02419e-05 114ZM116 114L116 1.54347e-07L112 -1.54347e-07L112 114L116 114ZM114 -2C49.935 -2 -2.00002 49.935 -2.00002 114L1.99998 114C1.99998 52.1441 52.1441 2 114 2L114 -2ZM-2.03293e-05 116L114 116L114 112L-2.01545e-05 112L-2.03293e-05 116Z" fill="#FDCEBA" mask="url(#path-1-inside-1)"/>
</svg>
