<svg width="114" height="114" viewBox="0 0 114 114" fill="none" xmlns="http://www.w3.org/2000/svg">
<mask id="path-1-inside-1" fill="white">
<path fill-rule="evenodd" clip-rule="evenodd" d="M114 -2.67029e-05L-0.000305176 -3.05176e-05C-0.000305176 62.9604 51.0392 114 114 114L114 -2.67029e-05Z"/>
</mask>
<path d="M114 -2.67029e-05L116 -2.68367e-05V-2.00003L114 -2.00003V-2.67029e-05ZM-0.000305176 -3.05176e-05L-0.000305109 -2.00003H-2.00031V-3.05176e-05H-0.000305176ZM114 114V116H116V114H114ZM114 -2.00003L-0.000305109 -2.00003L-0.000305243 1.99997L114 1.99997V-2.00003ZM-2.00031 -3.05176e-05C-2.00031 64.065 49.9347 116 114 116V112C52.1438 112 1.99969 61.8559 1.99969 -3.05176e-05H-2.00031ZM116 114L116 -2.68367e-05L112 -2.6569e-05L112 114H116Z" fill="#FCCCC7" mask="url(#path-1-inside-1)"/>
</svg>
