<svg width="246" height="235" viewBox="0 0 246 235" fill="none" xmlns="http://www.w3.org/2000/svg">
<path d="M110.636 9.05167C114.528 -2.92537 131.472 -2.92538 135.364 9.05166L155.33 70.5015C157.07 75.8578 162.062 79.4843 167.694 79.4843H232.306C244.899 79.4843 250.135 95.5993 239.947 103.002L187.675 140.98C183.118 144.29 181.212 150.158 182.952 155.514L202.919 216.964C206.81 228.941 193.102 238.901 182.914 231.498L130.641 193.52C126.085 190.21 119.915 190.21 115.359 193.52L63.0864 231.498C52.8981 238.901 39.1899 228.941 43.0814 216.964L63.0477 155.514C64.7881 150.158 62.8815 144.29 58.3252 140.98L6.05281 103.002C-4.13547 95.5993 1.10061 79.4843 13.694 79.4843H78.3062C83.9382 79.4843 88.9296 75.8578 90.67 70.5016L110.636 9.05167Z" fill="#FFEDCD"/>
</svg>
