<svg width="113" height="114" viewBox="0 0 113 114" fill="none" xmlns="http://www.w3.org/2000/svg">
<mask id="path-1-inside-1" fill="white">
<path fill-rule="evenodd" clip-rule="evenodd" d="M-4.98271e-06 0.0087738L1.15445e-05 114C62.4082 114 113 63.4082 113 0.999995C113 0.669253 112.999 0.338839 112.996 0.00876886L-4.98271e-06 0.0087738Z"/>
</mask>
<path d="M-4.98271e-06 0.0087738L-5.07014e-06 -1.99123L-2.00001 -1.99123L-2 0.00877389L-4.98271e-06 0.0087738ZM1.15445e-05 114L-1.99999 114L-1.99999 116L1.20297e-05 116L1.15445e-05 114ZM112.996 0.00876886L114.996 -0.00842788L114.979 -1.99123L112.996 -1.99123L112.996 0.00876886ZM-2 0.00877389L-1.99999 114L2.00001 114L2 0.00877372L-2 0.00877389ZM1.20297e-05 116C63.5127 116 115 64.5127 115 0.999995L111 0.999995C111 62.3036 61.3036 112 1.10592e-05 112L1.20297e-05 116ZM115 0.999995C115 0.663531 114.999 0.327388 114.996 -0.00842788L110.996 0.0259656C110.999 0.350291 111 0.674975 111 0.999995L115 0.999995ZM112.996 -1.99123L-5.07014e-06 -1.99123L-4.89529e-06 2.00877L112.996 2.00877L112.996 -1.99123Z" fill="#FFF4E0" mask="url(#path-1-inside-1)"/>
</svg>
